<svg xmlns="http://www.w3.org/2000/svg" version="1.1" xmlns:xlink="http://www.w3.org/1999/xlink" xmlns:svgjs="http://svgjs.dev/svgjs" width="100%" height="100%" viewBox="0 0 1000 600"><rect width="1000" height="600" x="0" y="0" fill="#FFFF"/><g><circle r="166.66666666666666" cx="347.2084299723307" cy="369.4306658276344" fill="#1b3220" transform="matrix(0.6923604046927702,0,0,0.6923604046927703,0,44.220805356761915)"/><path d="M384.20843151216206 444.4306838463675L310.20843151216206 444.4306838463675L310.20843151216206 294.4306838463675L384.20843151216206 294.4306838463675L384.20843151216206 311.4306838463675L329.20843151216206 311.4306838463675L329.20843151216206 343.4306838463675L372.5417648454954 343.4306838463675L372.5417648454954 360.4306838463675L329.20843151216206 360.4306838463675L329.20843151216206 427.4306838463675L384.20843151216206 427.4306838463675L384.20843151216206 444.4306838463675Z " fill="#FFFF" transform="matrix(0.6923604046927702,0,0,0.6923604046927703,0,44.220805356761915)"/><path d="M652.1589246498934 405.8168106238603L597.2084316758289 405.8168106238603L597.2084316758289 294.430676216973L652.1589246498934 294.430676216973L652.1589246498934 307.0544381164202L611.3173420340347 307.0544381164202L611.3173420340347 330.8168134565562L643.4955586404687 330.8168134565562L643.4955586404687 343.4405753560034L611.3173420340347 343.4405753560034L611.3173420340347 393.1930487244131L652.1589246498934 393.1930487244131L652.1589246498934 405.8168106238603ZM705.6242691651993 407.3019590826188L705.6242691651993 407.3019590826188Q694.7331804676369 407.3019590826188 685.822289715086 402.10393947696406Q676.911398962535 396.9059198713093 671.589616985317 388.11879149032154Q666.267835008099 379.33166310933376 666.267835008099 368.6880991548978L666.267835008099 368.6880991548978Q666.267835008099 358.04453520046195 671.589616985317 349.25740681947417Q676.911398962535 340.4702784384864 685.822289715086 335.27225883283165Q694.7331804676369 330.0742392271769 705.6242691651993 330.0742392271769L705.6242691651993 330.0742392271769Q713.6688233168078 330.0742392271769 720.7232784959107 332.9207737731307Q727.7777336750135 335.76730831908446 733.0995156522314 340.4702784384864L733.0995156522314 340.4702784384864L729.0153573906456 357.30196097108274Q725.9212981015654 351.1138423929223 719.6836745747797 346.9059217597732Q713.4212985736814 342.69800112662415 705.500506793636 342.69800112662415L705.500506793636 342.69800112662415Q698.32228924297 342.69800112662415 692.4312003565612 346.21285247901926Q686.5648639444652 349.75245630572704 683.0995175406954 355.61879271782306Q679.6341711369255 361.5098816042318 679.6341711369255 368.6880991548978L679.6341711369255 368.6880991548978Q679.6341711369255 375.7425543340007 683.0995175406954 381.6831481690347Q686.5648639444652 387.6237420040687 692.4312003565612 391.1385933564638Q698.32228924297 394.67819718317156 705.500506793636 394.67819718317156L705.500506793636 394.67819718317156Q713.4212985736814 394.67819718317156 719.6836745747797 390.5940389215857Q725.9212981015654 386.5098806599998 729.0153573906456 380.07423733871303L729.0153573906456 380.07423733871303L733.0995156522314 396.9059198713093Q727.7777336750135 401.6088899907112 720.7232784959107 404.45542453666496Q713.6688233168078 407.3019590826188 705.6242691651993 407.3019590826188ZM783.3470385068939 407.3019590826188L783.3470385068939 407.3019590826188Q772.5797121808948 407.3019590826188 763.6688214283438 402.10393947696406Q754.7579306757929 396.9059198713093 749.5104061215128 388.11879149032154Q744.2381290929202 379.33166310933376 744.2381290929202 368.6880991548978L744.2381290929202 368.6880991548978Q744.2381290929202 357.92077282889875 749.5104061215128 349.18314939653624Q754.7579306757929 340.4702784384864 763.6688214283438 335.27225883283165Q772.5797121808948 330.0742392271769 783.3470385068939 330.0742392271769L783.3470385068939 330.0742392271769Q794.2381272044562 330.0742392271769 803.0747605340692 335.27225883283165Q811.936146337995 340.4702784384864 817.2084233665877 349.18314939653624Q822.4559479208677 357.92077282889875 822.4559479208677 368.6880991548978L822.4559479208677 368.6880991548978Q822.4559479208677 379.33166310933376 817.2084233665877 388.11879149032154Q811.936146337995 396.9059198713093 803.0747605340692 402.10393947696406Q794.2381272044562 407.3019590826188 783.3470385068939 407.3019590826188ZM783.3470385068939 394.67819718317156L783.3470385068939 394.67819718317156Q790.52525605756 394.67819718317156 796.3420875210307 391.1385933564638Q802.1589189845016 387.6237420040687 805.6242653882714 381.73265311766Q809.0896117920412 375.8663167055639 809.0896117920412 368.6880991548978L809.0896117920412 368.6880991548978Q809.0896117920412 361.5098816042318 805.6242653882714 355.61879271782306Q802.1589189845016 349.75245630572704 796.3420875210307 346.21285247901926Q790.52525605756 342.69800112662415 783.3470385068939 342.69800112662415L783.3470385068939 342.69800112662415Q776.1688209562278 342.69800112662415 770.3519894927571 346.21285247901926Q764.5351580292863 349.75245630572704 761.0698116255165 355.61879271782306Q757.6044652217466 361.5098816042318 757.6044652217466 368.6880991548978L757.6044652217466 368.6880991548978Q757.6044652217466 375.8663167055639 761.0698116255165 381.73265311766Q764.5351580292863 387.6237420040687 770.3519894927571 391.1385933564638Q776.1688209562278 394.67819718317156 783.3470385068939 394.67819718317156ZM905.6242616113435 331.5593876859354L868.1242630276914 409.5296817707565L830.6242644440393 331.5593876859354L845.847036146314 331.5593876859354L860.9460454770255 363.7376042923695Q863.0500057936 368.0692872970818 864.906441367048 372.2772079302309Q866.7628769404962 376.48512856337993 868.4955501423811 382.54948476997714L868.4955501423811 382.54948476997714Q870.3519857158293 376.48512856337993 872.2579262379027 372.20295050729294Q874.1886192342887 367.9455249255186 876.1688171792999 363.7376042923695L876.1688171792999 363.7376042923695L891.3915888815746 331.5593876859354L905.6242616113435 331.5593876859354ZM952.901487548489 407.3019590826188L952.901487548489 407.3019590826188Q942.13416122249 407.3019590826188 933.2232704699389 402.10393947696406Q924.3123797173879 396.9059198713093 919.0401026887953 388.11879149032154Q913.7925781345153 379.33166310933376 913.7925781345153 368.6880991548978L913.7925781345153 368.6880991548978Q913.7925781345153 357.92077282889875 919.0401026887953 349.18314939653624Q924.3123797173879 340.4702784384864 933.2232704699389 335.27225883283165Q942.13416122249 330.0742392271769 952.901487548489 330.0742392271769L952.901487548489 330.0742392271769Q963.7925762460515 330.0742392271769 972.6292095756644 335.27225883283165Q981.4905953795901 340.4702784384864 986.7628724081827 349.18314939653624Q992.0103969624628 357.92077282889875 992.0103969624628 368.6880991548978L992.0103969624628 368.6880991548978Q992.0103969624628 379.33166310933376 986.7628724081827 388.11879149032154Q981.4905953795901 396.9059198713093 972.6292095756644 402.10393947696406Q963.7925762460515 407.3019590826188 952.901487548489 407.3019590826188ZM952.901487548489 394.67819718317156L952.901487548489 394.67819718317156Q960.0797050991551 394.67819718317156 965.8965365626259 391.1385933564638Q971.7133680260966 387.6237420040687 975.1787144298665 381.73265311766Q978.6440608336363 375.8663167055639 978.6440608336363 368.6880991548978L978.6440608336363 368.6880991548978Q978.6440608336363 361.5098816042318 975.1787144298665 355.61879271782306Q971.7133680260966 349.75245630572704 965.8965365626259 346.21285247901926Q960.0797050991551 342.69800112662415 952.901487548489 342.69800112662415L952.901487548489 342.69800112662415Q945.723269997823 342.69800112662415 939.9064385343521 346.21285247901926Q934.0896070708815 349.75245630572704 930.6242606671116 355.61879271782306Q927.1589142633418 361.5098816042318 927.1589142633418 368.6880991548978L927.1589142633418 368.6880991548978Q927.1589142633418 375.8663167055639 930.6242606671116 381.73265311766Q934.0896070708815 387.6237420040687 939.9064385343521 391.1385933564638Q945.723269997823 394.67819718317156 952.901487548489 394.67819718317156ZM1040.6490089868034 444.4306705515812L1040.6490089868034 444.4306705515812Q1032.1094053489423 444.4306705515812 1025.1292075927772 441.95542312031705Q1018.1242573622997 439.4801756890529 1012.6787130135186 435.1484926843406L1012.6787130135186 435.1484926843406L1016.3915841604148 420.0494833536292Q1020.104455307311 425.37126533084717 1026.2925738854715 428.7128493630538Q1032.4806924636318 432.0544333952604 1040.5252466152403 432.0544333952604L1040.5252466152403 432.0544333952604Q1053.0252461431244 432.0544333952604 1060.7480181286687 424.5049287299047Q1068.4955425885255 416.955424064549 1068.4955425885255 405.07423639448103L1068.4955425885255 405.07423639448103L1068.4955425885255 396.03958327036685Q1063.545047725997 400.9900781328952 1056.7876222386458 403.8861176274742Q1050.0549492256073 406.8069095963659 1042.3816821886885 406.8069095963659L1042.3816821886885 406.8069095963659Q1032.2331677205057 406.8069095963659 1023.8173264542073 401.6583949393365Q1015.4014851879091 396.53463275661966 1010.3767329024429 387.87126674719514Q1005.3767330912893 379.20790073777056 1005.3767330912893 368.6880991548978L1005.3767330912893 368.6880991548978Q1005.3767330912893 358.16829757202515 1010.3767329024429 349.5049315626006Q1015.4014851879091 340.841565553176 1023.8173264542073 335.6930508961466Q1032.2331677205057 330.5692887134297 1042.3816821886885 330.5692887134297L1042.3816821886885 330.5692887134297Q1050.0549492256073 330.5692887134297 1056.7876222386458 333.41582325938356Q1063.545047725997 336.26235780533733 1068.4955425885255 341.33661503942886L1068.4955425885255 341.33661503942886L1068.4955425885255 331.5593876859354L1080.8717797448462 331.5593876859354L1080.8717797448462 405.8168106238603Q1080.8717797448462 417.94552303705467 1075.2529680758767 426.60888904647925Q1069.6094039325944 435.2722550559038 1060.4509884369168 439.8514628037425Q1051.2925729412395 444.4306705515812 1040.6490089868034 444.4306705515812ZM1044.1143553905736 394.67819718317156L1044.1143553905736 394.67819718317156Q1051.1688105696762 394.67819718317156 1056.9361370845218 391.1385933564638Q1062.6787111250546 387.6237420040687 1066.0698001058863 381.73265311766Q1069.4856415610311 375.8663167055639 1069.4856415610311 368.6880991548978L1069.4856415610311 368.6880991548978Q1069.4856415610311 361.5098816042318 1066.0698001058863 355.61879271782306Q1062.6787111250546 349.75245630572704 1056.9361370845218 346.21285247901926Q1051.1688105696762 342.69800112662415 1044.1143553905736 342.69800112662415L1044.1143553905736 342.69800112662415Q1037.0599002114704 342.69800112662415 1031.3173261709376 346.21285247901926Q1025.549999656092 349.75245630572704 1022.1341582009476 355.61879271782306Q1018.7430692201158 361.5098816042318 1018.7430692201158 368.6880991548978L1018.7430692201158 368.6880991548978Q1018.7430692201158 375.8663167055639 1022.1341582009476 381.73265311766Q1025.549999656092 387.6237420040687 1031.3173261709376 391.1385933564638Q1037.0599002114704 394.67819718317156 1044.1143553905736 394.67819718317156ZM1132.9757381729569 407.3019590826188L1132.9757381729569 407.3019590826188Q1125.1787087644748 407.3019590826188 1118.3717783284983 403.3910681412214Q1111.5648478925218 399.5049296741367 1107.3569272593727 392.0791873803442Q1103.1490066262236 384.6534450865517 1103.1490066262236 374.2574058752422L1103.1490066262236 374.2574058752422L1103.1490066262236 331.5593876859354L1116.5153427550501 331.5593876859354L1116.5153427550501 372.4009703017941Q1116.5153427550501 381.18809868278186 1121.7628673093302 387.92077169582035Q1127.0351443379227 394.67819718317156 1136.5648469482899 394.67819718317156L1136.5648469482899 394.67819718317156Q1144.361876356772 394.67819718317156 1150.4757375119943 389.0346330398893Q1156.6143511415296 383.4158213709196 1156.6143511415296 372.77225741648374L1156.6143511415296 372.77225741648374L1156.6143511415296 331.5593876859354L1169.9806872703562 331.5593876859354L1169.9806872703562 405.8168106238603L1157.6044501140352 405.8168106238603L1157.6044501140352 393.8118605822291Q1153.5202918524494 400.37126627507917 1147.0351435825373 403.83661267884895Q1140.5252428383126 407.3019590826188 1132.9757381729569 407.3019590826188ZM1229.1391008775695 407.3019590826188L1229.1391008775695 407.3019590826188Q1217.5054379506278 407.3019590826188 1208.2975175063252 402.10393947696406Q1199.06484458771 396.9059198713093 1193.7925675591173 387.92077169582035Q1188.5450430048372 378.9603759946441 1188.5450430048372 367.9455249255186L1188.5450430048372 367.9455249255186Q1188.5450430048372 357.42572334264594 1193.6193002389289 348.81186228184663Q1198.6935574730205 340.22275369536 1207.3074185338196 335.14849646126845Q1215.8965271203065 330.0742392271769 1226.2925663316155 330.0742392271769L1226.2925663316155 330.0742392271769Q1236.564843171362 330.0742392271769 1245.1044468092232 334.9504766667673Q1253.6440504470847 339.8514665806704 1258.7183076811762 348.1435454754053Q1263.792564915268 356.43562437014026 1263.792564915268 366.95542595301293L1263.792564915268 366.95542595301293L1263.792564915268 372.4009703017941L1215.2777152624903 372.4009703017941Q1212.0598936018469 372.4009703017941 1208.71830956964 372.15344555866767Q1205.3767255374337 371.90592081554126 1202.1589038767902 371.4108713292884L1202.1589038767902 371.4108713292884Q1203.5202899639855 381.31186105434506 1211.1192995779666 387.99502911875834Q1218.74306166626 394.67819718317156 1229.2628632491328 394.67819718317156L1229.2628632491328 394.67819718317156Q1236.3173184282355 394.67819718317156 1242.3816746348325 391.4603755225281Q1248.44603084143 388.24255386188474 1252.1589019883263 382.9207718846668L1252.1589019883263 382.9207718846668L1255.8717731352222 398.1435435869414Q1250.5499911580046 402.47522659165367 1243.6935557734027 404.8762165999799Q1236.8123679144883 407.3019590826188 1229.1391008775695 407.3019590826188ZM1201.7876167621007 362.37621820517427L1201.7876167621007 362.37621820517427Q1208.4707848265139 361.26235686110533 1215.2777152624903 361.26235686110533L1215.2777152624903 361.26235686110533L1239.9064272035685 361.26235686110533Q1242.6291993779591 361.26235686110533 1245.3024666037245 361.43562418129386Q1247.9509813551772 361.633643975795 1250.6737535295679 361.8811687189214L1250.6737535295679 361.8811687189214Q1248.9410803276828 353.2178027094968 1242.010387520143 347.57423856621455Q1235.0796947126037 341.9554268972449 1226.2925663316155 341.9554268972449L1226.2925663316155 341.9554268972449Q1217.2579132075016 341.9554268972449 1210.450982771525 347.94552568090415Q1203.6440523355486 353.9603769388761 1201.7876167621007 362.37621820517427Z " fill="#1b3220" transform="matrix(0.6923604046927702,0,0,0.6923604046927703,0,44.220805356761915)"/></g></svg>